<?xml version="1.0" encoding="utf-8"?>
<!-- Generator: Adobe Illustrator 19.1.0, SVG Export Plug-In . SVG Version: 6.00 Build 0)  -->
<svg version="1.1" id="Layer_1" xmlns="http://www.w3.org/2000/svg" xmlns:xlink="http://www.w3.org/1999/xlink" x="0px" y="0px"
	 viewBox="0 0 65.5 65.5" style="enable-background:new 0 0 65.5 65.5;" xml:space="preserve" preserveAspectRatio="xMidYMid">
<style type="text/css">
	.st0{fill:#FFFFFF;}
</style>
<g>
	<path class="st0" d="M51,65.5H14.5C6.5,65.5,0,59,0,51V14.5C0,6.5,6.5,0,14.5,0H51c8,0,14.5,6.5,14.5,14.5V51
		C65.5,59,59,65.5,51,65.5z M14.5,3C8.2,3,3,8.2,3,14.5V51c0,6.3,5.2,11.5,11.5,11.5H51c6.3,0,11.5-5.2,11.5-11.5V14.5
		C62.5,8.2,57.4,3,51,3H14.5z"/>
	<path class="st0" d="M53.3,17.6h-4.9c-1.1,0-2-0.9-2-2v-4.9c0-1.1,0.9-2,2-2h4.9c1.1,0,2,0.9,2,2v4.9
		C55.3,16.7,54.4,17.6,53.3,17.6z"/>
	<path class="st0" d="M64,22.4H46.4c-3.4-3.8-8.2-6.1-13.6-6.1c-5.4,0-10.3,2.4-13.6,6.1H1.5v3h15.4c-1.6,2.7-2.5,5.8-2.5,9.2
		c0,10.1,8.2,18.3,18.3,18.3c10.1,0,18.3-8.2,18.3-18.3c0-3.4-0.9-6.5-2.5-9.2H64V22.4z M32.8,49.9c-8.5,0-15.3-6.9-15.3-15.3
		c0-0.5,0-1,0.1-1.4c0-0.2,0-0.3,0.1-0.5c0-0.3,0.1-0.6,0.1-0.9c0-0.2,0.1-0.4,0.1-0.6c0.1-0.2,0.1-0.4,0.2-0.6
		c0.1-0.2,0.1-0.5,0.2-0.7c0-0.1,0.1-0.3,0.1-0.4c0.5-1.4,1.3-2.8,2.2-4l0,0l0,0c1.8-2.3,4.2-4.2,7-5.2c0.1-0.1,0.3-0.1,0.4-0.2
		c0.2-0.1,0.5-0.2,0.7-0.2c0.2-0.1,0.4-0.1,0.7-0.2c0.2,0,0.4-0.1,0.6-0.1c0.3-0.1,0.6-0.1,0.9-0.1c0.2,0,0.3,0,0.5-0.1
		c0.5,0,0.9-0.1,1.4-0.1c0.5,0,1,0,1.4,0.1c0.2,0,0.3,0,0.5,0.1c0.3,0,0.6,0.1,0.9,0.1c0.2,0,0.4,0.1,0.6,0.1
		c0.2,0.1,0.4,0.1,0.7,0.2c0.2,0.1,0.5,0.1,0.7,0.2c0.1,0,0.3,0.1,0.4,0.2c4.2,1.6,7.6,4.9,9.1,9.2c0,0.1,0.1,0.3,0.1,0.4
		c0.1,0.2,0.2,0.5,0.2,0.7c0.1,0.2,0.1,0.4,0.2,0.6c0,0.2,0.1,0.4,0.1,0.6c0.1,0.3,0.1,0.6,0.1,0.9c0,0.2,0,0.3,0.1,0.5
		c0,0.5,0.1,0.9,0.1,1.4C48.1,43,41.2,49.9,32.8,49.9z"/>
</g>
</svg>
