<?xml version="1.0" encoding="utf-8"?>
<!-- Generator: Adobe Illustrator 19.1.0, SVG Export Plug-In . SVG Version: 6.00 Build 0)  -->
<svg version="1.1" id="Layer_1" xmlns="http://www.w3.org/2000/svg" xmlns:xlink="http://www.w3.org/1999/xlink" x="0px" y="0px"
	 viewBox="0 0 27.5 27.5" style="enable-background:new 0 0 27.5 27.5;" xml:space="preserve" preserveAspectRatio="xMinYMid">
<style type="text/css">
	.st0{fill:#FFFFFF;}
</style>
<path class="st0" d="M18.9,13.7l7.4-7.4c0.7-0.7,1.1-1.6,1.1-2.6c0-1-0.4-1.9-1.1-2.6C25.7,0.4,24.7,0,23.8,0c0,0,0,0,0,0
	c-1,0-1.9,0.4-2.6,1.1l-7.4,7.4L6.3,1.1C5.6,0.4,4.7,0,3.7,0c0,0,0,0,0,0c-1,0-1.9,0.4-2.6,1.1C0.4,1.8,0,2.7,0,3.7s0.4,1.9,1.1,2.6
	l7.4,7.4l-7.4,7.4C0.4,21.9,0,22.8,0,23.8c0,1,0.4,1.9,1.1,2.6c0.7,0.7,1.6,1.1,2.6,1.1s1.9-0.4,2.6-1.1l7.4-7.4l7.4,7.4
	c0.7,0.7,1.6,1.1,2.6,1.1c1,0,1.9-0.4,2.6-1.1c0.7-0.7,1.1-1.6,1.1-2.6c0-1-0.4-1.9-1.1-2.6L18.9,13.7z"/>
</svg>
