<?xml version="1.0" encoding="utf-8"?>
<!-- Generator: Adobe Illustrator 19.1.0, SVG Export Plug-In . SVG Version: 6.00 Build 0)  -->
<svg version="1.1" id="Layer_1" xmlns="http://www.w3.org/2000/svg" xmlns:xlink="http://www.w3.org/1999/xlink" x="0px" y="0px"
	 viewBox="0 0 32.8 64.3" style="enable-background:new 0 0 32.8 64.3;" xml:space="preserve" preserveAspectRatio="xMidYMid">
<style type="text/css">
	.st0{fill:#FFFFFF;}
</style>
<g id="_x23_020201ff_1_">
	<path class="st0" d="M6.3,64.3l0-1.2c0-5.7,0-11.6,0-17.2c0-4.2,0-8.3,0-12.5c-0.5,0-0.9,0-1.4,0c-1.2,0-2.4,0-3.6,0l-1.2,0l0-1.2
		c0-2.3,0-4.6,0-6.9l0-4.7l1.2,0c1.2,0,2.4,0,3.6,0c0.5,0,1,0,1.4,0c0-1,0-2,0-3.1c0-1.9,0-3.9,0-5.8c0.3-3.3,1.6-6.2,3.6-8.1
		c2.3-2.2,5.6-3.4,9.9-3.5c2.6,0,5.2,0,7.8,0l3.8,0l0,1.2c0,3.6,0,7.2,0,10.8l0,1.2h-7.9c-0.8-0.1-1.7,0.6-1.8,1.3
		c0,1.8,0,3.5,0,5.3l0,0.5c2.8,0,5.6,0,8.5,0l1.3,0l-0.1,1.3c-0.2,3.1-0.6,6.4-1.2,10.5L30,33.4l-1.1,0c-1.6,0-3.3,0-4.9,0
		c-0.8,0-1.6,0-2.4,0c0,4.8,0,9.5,0,14.3c0,5.1,0,10.2,0,15.3l0,1.2l-1.2,0c-1.8,0-3.7,0-5.5,0c-2.4,0-4.8,0-7.3,0L6.3,64.3z
		 M6.1,30.9c0.5,0,0.9,0,1.4,0l1.2,0l0,1.2c0,4.6,0,9.1,0,13.7c0,5.2,0,10.6,0,15.9c2,0,4,0,6,0c1.4,0,2.8,0,4.2,0
		c0-4.7,0-9.4,0-14.1c0-5.2,0-10.4,0-15.5l0-1.2l1.2,0c1.2,0,2.5,0,3.7,0c1.3,0,2.5,0,3.8,0c0.4-3,0.7-5.6,0.9-7.9
		c-2.8,0-5.6,0-8.4,0l-1.2,0l0-3c0-1.8,0-3.7,0-5.5l0-0.2c0.4-2,2.3-3.5,4.4-3.4l5.3,0c0-2.8,0-5.5,0-8.3l-1.3,0c-2.6,0-5.1,0-7.7,0
		c-3.6,0.1-6.4,1.1-8.2,2.8l0,0C10,6.8,9,9.1,8.8,11.7c-0.1,1.8-0.1,3.8,0,5.7c0,1.4,0,2.9,0,4.3l0,1.2l-1.2,0c-0.9,0-1.8,0-2.7,0
		c-0.8,0-1.5,0-2.3,0l0,2.2c0,1.9,0,3.8,0,5.7c0.8,0,1.5,0,2.3,0C5.2,30.9,5.6,30.9,6.1,30.9z"/>
</g>
</svg>
